<svg width="158" height="44" viewBox="0 0 158 44" fill="none" xmlns="http://www.w3.org/2000/svg">
<g clip-path="url(#clip0_1435_8)">
<path d="M152.261 22H130.202C127.033 22 124.463 24.5625 124.463 27.7236V34.6992C124.463 37.8602 127.033 40.4228 130.202 40.4228H152.261C155.431 40.4228 158 37.8602 158 34.6992V27.7236C158 24.5625 155.431 22 152.261 22Z" fill="#8F00D2"/>
<path d="M129.125 34.875V33.75H128V30.375H129.125V29.25H133.625V27H135.875V34.875H129.125ZM130.25 33.75H133.625V30.375H130.25V33.75ZM138.125 34.875V33.75H137V30.375H138.125V29.25H143.75V30.375H144.875V32.625H139.25V33.75H143.75V34.875H138.125ZM139.25 31.5H142.625V30.375H139.25V31.5ZM149.375 34.875V33.75H148.25V32.625H147.125V29.25H149.375V32.625H151.625V29.25H153.875V32.625H152.75V33.75H151.625V34.875H149.375Z" fill="white"/>
<path d="M3.125 31V28.875H11.625V26.75H3.125V24.625H1V20.375H3.125V18.25H15.875V28.875H13.75V31H3.125ZM5.25 24.625H11.625V20.375H5.25V24.625ZM20.125 28.875V26.75H18V20.375H20.125V18.25H30.75V20.375H32.875V26.75H30.75V28.875H20.125ZM22.25 26.75H28.625V20.375H22.25V26.75ZM41.375 28.875V20.375H37.125V18.25H41.375V14H45.625V18.25H49.875V20.375H45.625V28.875H41.375ZM54.125 28.875V26.75H52V24.625H54.125V22.5H62.625V20.375H54.125V18.25H64.75V20.375H66.875V28.875H54.125ZM56.25 26.75H62.625V24.625H56.25V26.75ZM75.375 20.375H77.5V22.5H75.375V28.875H71.125V18.25H75.375V20.375ZM83.875 18.25V20.375H77.5V18.25H83.875ZM88.125 28.875V26.75H86V20.375H88.125V18.25H96.625V14H100.875V28.875H88.125ZM90.25 26.75H96.625V20.375H90.25V26.75ZM105.125 28.875V26.75H103V20.375H105.125V18.25H115.75V20.375H117.875V26.75H115.75V28.875H105.125ZM107.25 26.75H113.625V20.375H107.25V26.75Z" fill="white"/>
</g>
<defs>
<clipPath id="clip0_1435_8">
<rect width="158" height="44" fill="white"/>
</clipPath>
</defs>
</svg>
